<?xml version="1.0" standalone="no"?>
<!DOCTYPE svg PUBLIC "-//W3C//DTD SVG 1.1//EN" "http://www.w3.org/Graphics/SVG/1.1/DTD/svg11.dtd">
<svg t="1629706862373" class="icon" viewBox="0 0 1024 1024" version="1.1" xmlns="http://www.w3.org/2000/svg" p-id="2782" xmlns:xlink="http://www.w3.org/1999/xlink" width="200" height="200">
  <defs>
    <style type="text/css"></style>
  </defs>
  <path d="M585.142857 621.714286a36.571429 36.571429 0 0 1 0 73.142857H343.04a36.571429 36.571429 0 1 1 0-73.142857z m-145.261714-219.428572a36.571429 36.571429 0 1 1 0 73.142857H343.04a36.571429 36.571429 0 1 1 0-73.142857z" fill="white" p-id="2783"></path><path d="M620.251429 73.142857l294.034285 277.284572V841.142857A109.714286 109.714286 0 0 1 804.571429 950.857143H219.428571a109.714286 109.714286 0 0 1-109.714285-109.714286v-658.285714A109.714286 109.714286 0 0 1 219.428571 73.142857h400.822858zM548.571429 146.285714H219.428571a36.571429 36.571429 0 0 0-36.571428 36.571429v658.285714a36.571429 36.571429 0 0 0 36.571428 36.571429h585.142858a36.571429 36.571429 0 0 0 36.571428-36.571429V416.621714H658.285714a109.714286 109.714286 0 0 1-109.202285-99.108571L548.571429 306.980571V146.285714z m251.757714 197.193143L621.714286 175.030857v131.949714a36.571429 36.571429 0 0 0 29.988571 35.986286l6.582857 0.585143 142.043429-0.073143z" fill="white" p-id="2784"></path>
</svg>