<?xml version="1.0" standalone="no"?>
<!DOCTYPE svg PUBLIC "-//W3C//DTD SVG 20010904//EN"
 "http://www.w3.org/TR/2001/REC-SVG-20010904/DTD/svg10.dtd">
<svg version="1.0" xmlns="http://www.w3.org/2000/svg"
 width="256.000000pt" height="256.000000pt" viewBox="0 0 256.000000 256.000000"
 preserveAspectRatio="xMidYMid meet">

<g transform="translate(0.000000,256.000000) scale(0.100000,-0.100000)"
fill="#000000" stroke="none">
<path d="M0 1280 l0 -1280 1280 0 1280 0 0 1280 0 1280 -1280 0 -1280 0 0
-1280z m887 623 c18 -10 197 -218 418 -483 213 -256 389 -467 391 -469 2 -2 4
146 4 330 l0 334 -79 -85 -79 -85 -67 65 -66 66 83 99 c45 55 114 133 153 173
l71 72 56 0 c46 0 62 -5 88 -26 62 -53 60 -32 60 -616 0 -514 -1 -534 -20
-566 -11 -18 -34 -41 -52 -52 -43 -26 -131 -27 -175 -3 -18 10 -197 218 -418
483 -213 256 -389 467 -391 469 -2 2 -4 -144 -4 -325 l0 -329 82 88 81 88 63
-62 c35 -35 64 -68 64 -74 0 -14 -159 -204 -240 -288 l-66 -67 -57 0 c-53 0
-61 3 -100 39 l-42 40 -3 548 c-2 533 -2 549 18 581 11 18 34 41 52 52 43 26
131 27 175 3z"/>
</g>
</svg>
