<svg  xmlns="http://www.w3.org/2000/svg" xmlns:xlink="http://www.w3.org/1999/xlink" width="31px" height="35px"><path fill-rule="evenodd"  stroke="rgb(27, 211, 213)" stroke-width="2px" stroke-linecap="butt" stroke-linejoin="miter" fill="rgb(31, 37, 42)" d="M9.000,1.000 L21.000,1.000 C25.418,1.000 29.000,4.582 29.000,9.000 L29.000,25.000 C29.000,29.418 25.418,33.000 21.000,33.000 L9.000,33.000 C4.582,33.000 1.000,29.418 1.000,25.000 L1.000,9.000 C1.000,4.582 4.582,1.000 9.000,1.000 Z"/><path fill-rule="evenodd"  fill="rgb(27, 211, 213)" d="M19.716,20.673 L16.127,24.406 C15.559,25.179 14.465,25.179 13.897,24.406 L10.308,20.673 C9.577,19.676 10.239,18.215 11.423,18.215 L13.018,18.215 L13.018,11.131 C13.018,9.951 13.911,8.995 15.012,8.995 C16.113,8.995 17.006,9.951 17.006,11.131 L17.006,18.215 L18.601,18.215 C19.785,18.215 20.447,19.676 19.716,20.673 Z"/></svg>